<svg xmlns="http://www.w3.org/2000/svg" version="1.1" xmlns:xlink="http://www.w3.org/1999/xlink" xmlns:svgjs="http://svgjs.com/svgjs" width="1440" height="560" preserveAspectRatio="none" viewBox="0 0 1440 560"><g mask="url(&quot;#SvgjsMask1000&quot;)" fill="none"><rect width="1440" height="560" x="0" y="0" fill="#0e2a47"></rect><path d="M927.54 653.89C1015.84 630.63 960.09 404.02 1177.58 387.65 1395.06 371.28 1544.87 211.13 1677.65 208.45" stroke="rgba(51,121,194,0.58)" stroke-width="2"></path><path d="M313.24 622.1C477.95 622.07 632.61 575.26 970.26 573.13 1307.91 571 1450.4 314.76 1627.28 309.93" stroke="rgba(51,121,194,0.58)" stroke-width="2"></path><path d="M293.04 614.53C436.53 599.06 521.84 288.48 767.88 286.19 1013.92 283.9 1005.3 356.19 1242.72 356.19 1480.14 356.19 1597.57 286.38 1717.56 286.19" stroke="rgba(51,121,194,0.58)" stroke-width="2"></path><path d="M176.41 620.4C358.1 617.19 502.65 391.13 864.31 385.55 1225.97 379.97 1372.21 175.16 1552.21 172.75" stroke="rgba(51,121,194,0.58)" stroke-width="2"></path><path d="M144 573.76C341.52 563.19 471.12 218.84 846.64 210.05 1222.17 201.26 1368.68 43.21 1549.29 42.05" stroke="rgba(51,121,194,0.58)" stroke-width="2"></path></g><defs><mask id="SvgjsMask1000"><rect width="1440" height="560" fill="#ffffff"></rect></mask></defs></svg>