<svg xmlns="http://www.w3.org/2000/svg" version="1.1" xmlns:xlink="http://www.w3.org/1999/xlink" xmlns:svgjs="http://svgjs.com/svgjs" width="1440" height="560" preserveAspectRatio="none" viewBox="0 0 1440 560"><g mask="url(&quot;#SvgjsMask1058&quot;)" fill="none"><rect width="1440" height="560" x="0" y="0" fill="rgba(59, 66, 82, 1)"></rect><path d="M -811.6952570506918,246 C -667.7,255.6 -379.7,298.6 -91.69525705069177,294 C 196.3,289.4 340.3,224.8 628.3047429493082,223 C 916.3,221.2 1185.97,303.6 1348.3047429493083,285 C 1510.64,266.4 1421.66,161 1440,130" stroke="rgba(76, 86, 106, 1)" stroke-width="2"></path><path d="M -186.37785542754443,174 C -42.38,204.6 245.62,326.4 533.6221445724556,327 C 821.62,327.6 965.62,172.4 1253.6221445724555,177 C 1541.62,181.6 1936.35,347.2 1973.6221445724555,350 C 2010.9,352.8 1546.72,222.8 1440,191" stroke="rgba(76, 86, 106, 1)" stroke-width="2"></path></g><defs><mask id="SvgjsMask1058"><rect width="1440" height="560" fill="#ffffff"></rect></mask></defs></svg>